<svg xmlns="http://www.w3.org/2000/svg" xml:space="preserve" viewBox="0 0 800 800"><g><path fill="#fff" stroke="#000" stroke-miterlimit="10" stroke-width=".828" d="M318.62 535.24c14.322-17.104 29.933-36.063 43.342-53.84a825 825 0 0 0 24.484-34.531c1.349-2.039 8.311-12.369 6.174-18.975-2.42-15.268-66.933-97.167-77.111-100.91-9.245-6.783-57.847-17.972-92.582-23.036-19.037-2.771-33.942-3.688-35.876-1.056-.024-.004-.06.035-.078.054a20 20 0 0 0-8.576 5.66c-8.722 4.182-57.903 107.06-59.116 122.2-1.92 11.318 43.96 114.75 52.415 119.04 1.143.957 2.284 1.631 3.293 2.068.045.029.102.076.166.088.287.211.713.369 1.256.504.102.07.233.105.373.111.162.049.286.07.404.119.115.049.256.063.41.109a.24.24 0 0 1 .161.043l.04-.01c19.938 3.844 110.53 4.15 126.8-4.547 4.83-2.21 10.8-9.18 14.04-13.08z"/><linearGradient id="a" x1="900.61" x2="438.44" y1="320.69" y2="103.69" gradientTransform="rotate(36.243 162.075 -360.647)" gradientUnits="userSpaceOnUse"><stop offset="0" style="stop-color:#fff"/><stop offset=".477" style="stop-color:#dcdbdc"/><stop offset="1" style="stop-color:#999"/></linearGradient><path fill="url(#a)" d="m385.46 431.24.227.016c.642.053 1.102.098 1.51.117l.413.035c.138.027.25.039.358.041h.155c.046-.012.112.01.128.027a5.2 5.2 0 0 0-.969.078c1.947.707 3.007 1.781 3.481 3.109.664 1.889.211 3.949-.646 5.951-.969 2.307-2.532 4.537-3.666 6.252a825 825 0 0 1-24.484 34.531c-13.41 17.779-29.02 36.736-43.343 53.84-3.245 3.902-9.211 10.871-14.026 13.098-16.268 8.695-106.86 8.389-126.79 4.545l-.04.01a.25.25 0 0 0-.161-.043c-.154-.045-.295-.061-.41-.109-.118-.049-.243-.068-.404-.119a.7.7 0 0 1-.374-.111 13 13 0 0 1-1.255-.504c-.05-.039-.121-.057-.166-.088-.169-.121-.395-.246-.434-.395-.26-.631.034-1.635.756-3.615l.009-.064.911-1.498c.059-.135.171-.293.269-.473l1.09-1.793.809-1.373.084-.117c.145-.234.322-.529.501-.824l.537-.885 1.146-1.926 1.294-2.127 2.886-4.82.056-.068c.017-.027.056-.072.07-.098 2.252-3.395 54.414-82.107 60.148-89.918 5.893-8.027 16.187-15.305 35.688-15.068 7.743.088 92.571 3.756 100.41 4.084.1-.008.217.008.322.01l.183.021 3.72.27z" opacity=".95"/><linearGradient id="b" x1="675.11" x2="939.58" y1="170.47" y2="415.82" gradientTransform="rotate(36.243 162.075 -360.647)" gradientUnits="userSpaceOnUse"><stop offset="0" style="stop-color:#fff"/><stop offset=".477" style="stop-color:#dcdbdc"/><stop offset="1" style="stop-color:#d0d1d1"/></linearGradient><path fill="url(#b)" d="M377.89 430.66c.182.029.332.014.467.041l2.865.236c-7.84-.328-92.668-3.996-100.41-4.084-19.501-.236-29.795 7.041-35.688 15.068-5.734 7.811-57.896 86.523-60.148 89.918l6.897-11.477 1.989-3.287.437-.768 4.075-6.676c1.385-2.24 2.782-4.568 4.184-6.895l3.041-4.99 1.721-2.857 7.387-12.143c2.144-3.547 4.249-6.979 6.281-10.326l.013-.027 5.116-8.422.184-.289 2.151-3.574.777-1.25 4.406-7.318.628-1.014.939-1.539 1.215-2 1.367-2.227.825-1.395.829-1.33.399-.65.871-1.449.021-.023c.185-.316.341-.574.459-.797l.202-.311c.066-.102.1-.191.145-.266l.332-.557a118 118 0 0 1-1.421 2.871c3.32-6.529 8.9-11.988 15.71-14.76 7.72-3.133 14.286-2.881 22.44-3.266l39.523 3.127c3.257.264 6.597.52 9.957.783 1.898.146 3.809.295 5.691.457 1.492.102 2.944.227 4.396.33l5.035.404c.869.072 1.68.129 2.491.188l4.939.379 4.48.359c.866.057 1.703.148 2.527.219l4.183.305c.592.061 1.198.113 1.771.16l6.935.527 4.285.348.074.008 3.02.25z"/><linearGradient id="c" x1="778" x2="427.97" y1="141.54" y2="439.6" gradientTransform="rotate(36.243 162.075 -360.647)" gradientUnits="userSpaceOnUse"><stop offset="0" style="stop-color:#fff"/><stop offset=".477" style="stop-color:#dcdbdc"/><stop offset="1" style="stop-color:#d0d1d1"/></linearGradient><path fill="url(#c)" d="M240.45 440.86a118 118 0 0 0 1.421-2.871c2.876-5.779 4.02-11.01 3.949-16.021-.147-9.32-4.46-17.859-9.556-27.774 11.971 17.075 21.753 24.92 42.336 28.641-8.154.385-14.721.133-22.44 3.266-6.81 2.76-12.39 8.22-15.71 14.75z"/><linearGradient id="d" x1="655.18" x2="649.06" y1="148.28" y2="466.24" gradientTransform="rotate(36.243 162.075 -360.647)" gradientUnits="userSpaceOnUse"><stop offset="0" style="stop-color:#fff"/><stop offset=".477" style="stop-color:#dcdbdc"/><stop offset="1" style="stop-color:#d0d1d1"/></linearGradient><path fill="url(#d)" d="M240.2 419.08c-1.712-12.461-6.719-21.975-6.719-21.975-4.483-9.381-11.3-22.376-17.42-33.728l.018-.016c-1.679-3.096-3.275-6.084-4.755-8.803-.2-.368-.358-.68-.542-.994-1.345-2.461-2.586-4.741-3.683-6.715-.098-.234-.24-.444-.34-.676-.599-1.083-1.148-2.086-1.662-2.997-.219-.422-.436-.811-.62-1.179a189 189 0 0 1-2.029-3.651c.247.416.506.825.75 1.251.661 1.126 1.388 2.255 2.093 3.456l2.178 3.607c.442.734.908 1.5 1.372 2.253l3.177 5.254c.161.228.29.471.439.691l3.894 6.462c.303.479.587.966.886 1.439l5.979 9.926c2.059 3.358 3.972 6.542 5.668 9.345 1.105 1.801 2.106 3.487 2.996 4.958l1.25 2.059c1.966 3.216 3.135 5.14 3.135 5.14 5.096 9.915 9.408 18.454 9.556 27.774.07 5.012-1.073 10.242-3.949 16.021l-.332.557c-.045.074-.078.164-.145.266l-.202.311c-.118.223-.274.48-.459.797l-.021.023-.871 1.449-.399.65-.829 1.33-.825 1.395-1.367 2.227-1.215 2-.939 1.539-.12-.088c2.482-3.785 4.139-7.768 5.164-11.74.019-.15.053-.24.08-.375 1.59-6.61 1.55-13.28.78-19.24z"/><linearGradient id="e" x1="446.85" x2="837.95" y1="408.81" y2="124.56" gradientTransform="rotate(36.243 162.075 -360.647)" gradientUnits="userSpaceOnUse"><stop offset="0" style="stop-color:#fff"/><stop offset=".477" style="stop-color:#dcdbdc"/><stop offset="1" style="stop-color:#999"/></linearGradient><path fill="url(#e)" d="M233.48 397.11s5.007 9.514 6.719 21.975c.775 5.963.816 12.629-.81 19.244-.027.135-.062.225-.08.375-1.025 3.973-2.682 7.955-5.164 11.74l.12.088-.628 1.014-4.406 7.318-.777 1.25-2.151 3.574-.184.289c-1.666 2.689-3.344 5.502-5.116 8.422l-.013.027c-2.032 3.348-4.138 6.779-6.281 10.326l-7.387 12.143-1.721 2.857-3.041 4.99c-1.401 2.326-2.799 4.654-4.184 6.895l-4.075 6.676-.437.768-1.989 3.287c-2.526 4.164-4.877 8.031-6.897 11.477-.015.025-.054.07-.07.098l-.056.068a164 164 0 0 0-2.886 4.82l-1.294 2.127-1.146 1.926-.537.885c-.179.295-.356.59-.501.824l-.084.117-.809 1.373-1.09 1.793c-.098.18-.21.338-.269.473l-.911 1.498-.009.064c-1.225 1.262-2.442 2.045-3.038 2.139-.159-.008-.391-.1-.577-.197-8.455-4.299-54.335-107.73-52.415-119.04 1.213-15.141 50.395-118.02 59.115-122.2.286-.134.545-.174.736-.068 2.361.64 8.265 7.534 15.668 17.699a107 107 0 0 1-2.039-3.886l.843 1.386c.146.214.298.483.469.759.235.401.479.803.77 1.276.38.664.837 1.387 1.316 2.185a162 162 0 0 0 1.971 3.263 313 313 0 0 1 2.431 4.018c.296.484.595 1.001.907 1.502.299.474.587.954.881 1.436.034.06.059.081.095.144-.021.027-.021.027-.003.032.243.454.937 1.725 2.029 3.651.185.368.401.757.62 1.179.514.91 1.063 1.913 1.662 2.997.1.232.242.442.34.676 1.097 1.974 2.338 4.254 3.683 6.715.184.314.342.626.542.994 1.479 2.719 3.076 5.707 4.755 8.803l-.018.016c6.14 11.32 12.95 24.32 17.44 33.7z" opacity=".6"/><linearGradient id="f" x1="548.9" x2="673.71" y1="126.26" y2="293.87" gradientTransform="rotate(36.243 162.075 -360.647)" gradientUnits="userSpaceOnUse"><stop offset="0" style="stop-color:#fff"/><stop offset=".477" style="stop-color:#dcdbdc"/><stop offset="1" style="stop-color:#d0d1d1"/></linearGradient><path fill="url(#f)" d="M192.77 322.35a109 109 0 0 0 2.039 3.886c-7.403-10.165-13.307-17.06-15.668-17.699-.191-.106-.45-.066-.736.068a20 20 0 0 1 8.577-5.66c-1.956.542-.623 7.206 5.547 18.965l.001.055c.031.011.052.032.05.072l.16.29.03.01z"/><path d="M219.72 329.1c1.063 1.65 2.49 3.276 4.163 4.805a38 38 0 0 0 5.607 4.209 38.6 38.6 0 0 0 6.308 3.165c2.148.834 4.276 1.409 6.279 1.661 2.013.261 3.701.166 5.029-.222 1.328-.384 2.311-1.064 2.906-1.974.598-.909.814-2.061.594-3.392-.208-1.321-.836-2.816-1.905-4.462-1.08-1.633-2.497-3.229-4.151-4.737a39 39 0 0 0-5.542-4.148 37.7 37.7 0 0 0-6.22-3.123c-2.113-.832-4.214-1.412-6.203-1.689l-.028.005c-1.989-.272-3.676-.197-5.022.165-1.35.366-2.354 1.013-2.969 1.905-.634.899-.869 2.036-.696 3.349.18 1.33.79 2.84 1.85 4.49zM351.92 394.62a39 39 0 0 0-5.599-4.176c-1.991-1.234-4.072-2.295-6.151-3.081-2.066-.809-4.124-1.362-6.037-1.579-1.922-.228-3.516-.102-4.764.329-1.251.422-2.152 1.134-2.669 2.09-.521.967-.649 2.159-.375 3.542.285 1.388.968 2.958 2.116 4.657 1.159 1.691 2.639 3.364 4.345 4.91 1.705 1.548 3.636 3 5.665 4.25a37.6 37.6 0 0 0 6.252 3.115c2.095.82 4.173 1.355 6.089 1.547 1.93.215 3.52.064 4.746-.389 1.235-.449 2.113-1.184 2.601-2.168.499-.967.596-2.182.288-3.574-.298-1.371-1.014-2.912-2.157-4.579l-.036-.07c-1.14-1.67-2.61-3.31-4.3-4.83zM295.07 328.44c-1.904-.266-3.499-.185-4.737.168-1.259.369-2.173 1.011-2.716 1.895-.55.875-.72 1.99-.473 3.28.229 1.302.879 2.783 1.966 4.389 1.091 1.612 2.514 3.205 4.167 4.7a39 39 0 0 0 5.5 4.108 37 37 0 0 0 6.11 3.069c2.067.809 4.108 1.371 6.003 1.614 1.907.237 3.49.132 4.732-.248 1.239-.37 2.122-1.047 2.632-1.946.519-.89.657-2.018.384-3.316-.254-1.302-.927-2.775-2.017-4.371l-.005-.013c-1.09-1.587-2.509-3.161-4.148-4.632a40 40 0 0 0-5.43-4.043 37.3 37.3 0 0 0-6.032-3.037c-2.01-.8-4.04-1.36-5.92-1.61zM281.23 402.85c2.028.228 3.723.063 5.052-.381 1.335-.453 2.303-1.211 2.861-2.202.577-.991.757-2.232.51-3.651-.25-1.413-.936-3.017-2.064-4.734-1.122-1.729-2.614-3.405-4.319-4.964a38.6 38.6 0 0 0-5.719-4.292 38 38 0 0 0-6.355-3.173c-2.15-.827-4.296-1.391-6.313-1.627-2.021-.233-3.725-.099-5.071.315-1.351.444-2.347 1.167-2.95 2.139-.598.967-.814 2.197-.592 3.615.218 1.411.877 3.02 1.993 4.753 1.125 1.74 2.618 3.443 4.345 5.033 1.731 1.597 3.699 3.071 5.774 4.365 2.089 1.273 4.293 2.38 6.466 3.209 2.18.81 4.34 1.38 6.37 1.58zM168.15 379.41c1.014 1.565 2.217 2.684 3.549 3.358a7.1 7.1 0 0 0 4.25.713c1.48-.195 2.998-.852 4.449-1.925 1.466-1.087 2.86-2.608 4.11-4.556 1.247-1.966 2.215-4.154 2.907-6.46a29 29 0 0 0 1.18-7.034c.102-2.339-.095-4.623-.604-6.719-.487-2.072-1.285-3.955-2.397-5.495-1.081-1.531-2.359-2.556-3.74-3.143-1.38-.561-2.845-.683-4.331-.369-1.467.317-2.947 1.058-4.353 2.21-1.396 1.141-2.726 2.697-3.889 4.623l-.003.007c-1.161 1.916-2.061 4.054-2.692 6.25a29 29 0 0 0-1.102 6.699c-.108 2.227.059 4.405.499 6.424.43 2.01 1.15 3.86 2.15 5.41zM185.29 420.1c-.497-2.213-1.291-4.246-2.393-5.975-1.088-1.713-2.37-2.953-3.754-3.744-1.384-.779-2.857-1.113-4.343-.996-1.478.113-2.963.672-4.377 1.643-1.389.977-2.721 2.369-3.898 4.186-1.158 1.809-2.053 3.854-2.691 6.004a27.5 27.5 0 0 0-1.111 6.689c-.103 2.266.05 4.521.493 6.646.451 2.125 1.168 4.117 2.179 5.855 1.004 1.738 2.215 3.049 3.549 3.922 1.331.887 2.771 1.334 4.246 1.338 1.5.002 3.007-.43 4.473-1.33 1.455-.893 2.863-2.256 4.103-4.072 1.261-1.822 2.234-3.938 2.921-6.188a27.8 27.8 0 0 0 1.199-7.031c.09-2.37-.1-4.74-.6-6.94zM181.92 498.61c.693-2.205 1.089-4.596 1.187-7.02a28.1 28.1 0 0 0-.587-7.186c-.501-2.316-1.3-4.506-2.391-6.428-1.098-1.906-2.375-3.373-3.769-4.365-1.372-.998-2.84-1.549-4.334-1.641-1.473-.092-2.957.254-4.365 1.059-1.403.789-2.729 2.027-3.905 3.707-1.154 1.672-2.068 3.643-2.707 5.748a27.8 27.8 0 0 0-1.122 6.672 29.2 29.2 0 0 0 .496 6.855c.441 2.234 1.154 4.381 2.157 6.291 1.021 1.918 2.239 3.438 3.552 4.531 1.345 1.078 2.788 1.752 4.268 1.975 1.48.209 3.014-.033 4.47-.725 1.469-.715 2.88-1.893 4.118-3.566 1.26-1.67 2.23-3.7 2.92-5.9zM330.22 481.81c2.355-.475 4.74-1.324 7.041-2.484a33 33 0 0 0 6.525-4.361c2.033-1.729 3.85-3.701 5.343-5.887 1.52-2.18 2.549-4.379 3.139-6.475.593-2.123.736-4.146.434-5.982-.321-1.842-1.092-3.496-2.323-4.826-1.234-1.35-2.92-2.377-5.063-2.951l-.001-.002c-2.165-.59-4.585-.658-7.091-.285-2.524.381-5.138 1.223-7.669 2.445a33.2 33.2 0 0 0-7.212 4.762c-2.207 1.92-4.147 4.113-5.676 6.52-1.524 2.396-2.484 4.773-2.905 6.984-.44 2.188-.355 4.229.183 6.012a9.23 9.23 0 0 0 2.997 4.436c1.398 1.139 3.222 1.928 5.409 2.305l.023-.002c2.16.36 4.49.27 6.85-.21zM238.14 537.93c2.356-.475 4.74-1.324 7.042-2.484a33 33 0 0 0 6.524-4.363c2.032-1.727 3.85-3.699 5.343-5.885 1.52-2.18 2.55-4.381 3.141-6.475.591-2.125.735-4.146.432-5.982-.321-1.842-1.09-3.496-2.322-4.826-1.234-1.35-2.921-2.377-5.063-2.951v-.004c-2.166-.588-4.585-.656-7.092-.283-2.523.379-5.137 1.223-7.667 2.445a33 33 0 0 0-7.214 4.762c-2.207 1.92-4.147 4.115-5.675 6.52-1.525 2.396-2.484 4.773-2.906 6.982-.439 2.188-.355 4.229.183 6.014a9.23 9.23 0 0 0 2.998 4.436c1.397 1.139 3.222 1.928 5.408 2.305l.024-.004c2.17.36 4.51.26 6.86-.21z"/><g opacity=".25"><linearGradient id="g" x1="144.23" x2="159.14" y1="386.62" y2="386.62" gradientTransform="rotate(20.262 225.31 435.359)" gradientUnits="userSpaceOnUse"><stop offset="0" style="stop-color:#fff"/><stop offset=".477" style="stop-color:#dcdbdc"/><stop offset="1" style="stop-color:#999"/></linearGradient><path fill="url(#g)" d="M170.18 380.03c-1.007-1.554-1.728-3.403-2.166-5.417-.44-2.019-.606-4.197-.498-6.424.098-2.235.735-4.408 1.367-6.601.632-2.196 2.197-4.088 2.959-6.151l.003-.008c.765-2.073 2.226-3.58 3.622-4.721 1.405-1.152 2.754-1.942 4.22-2.259.892-.188 1.709-.241 2.571-.115a9 9 0 0 0-.363-.167 7.4 7.4 0 0 0-4.348-.375c-1.466.317-3.106.999-4.512 2.151-1.396 1.141-2.345 2.837-4.048 4.564l-.003.008c-.762 2.063-1.91 4.109-2.542 6.305-.631 2.192-.928 4.491-1.025 6.726a24.8 24.8 0 0 0 .536 6.438c.439 2.015 1.178 3.871 2.186 5.424 1.014 1.566 2.226 2.688 3.559 3.361a7.1 7.1 0 0 0 2.228.708c-.066-.031-.132-.057-.198-.091-1.35-.68-2.55-1.8-3.56-3.36z"/></g><g opacity=".25"><linearGradient id="h" x1="162.69" x2="178.73" y1="445.68" y2="445.68" gradientTransform="rotate(20.262 225.31 435.359)" gradientUnits="userSpaceOnUse"><stop offset="0" style="stop-color:#fff"/><stop offset=".477" style="stop-color:#dcdbdc"/><stop offset="1" style="stop-color:#999"/></linearGradient><path fill="url(#h)" d="M167.85 441.31c-1.01-1.736-1.728-3.729-2.177-5.855-.445-2.125-.597-4.381-.494-6.646a27.6 27.6 0 0 1 1.11-6.689c.64-2.15 1.533-4.195 2.691-6.004 1.179-1.816 2.511-3.209 3.898-4.186 1.416-.971 2.899-1.529 4.377-1.643a7.2 7.2 0 0 1 1.916.107l-.024-.016c-1.383-.779-2.857-1.113-4.343-.996-1.478.113-2.962.672-4.377 1.643-1.389.977-2.721 2.369-3.898 4.186-1.158 1.809-2.053 3.852-2.691 6.004a27.5 27.5 0 0 0-1.111 6.689c-.103 2.264.05 4.521.494 6.645.45 2.127 1.167 4.119 2.178 5.857 1.004 1.738 2.215 3.049 3.549 3.922a7.9 7.9 0 0 0 2.949 1.213 12 12 0 0 1-.498-.307c-1.35-.86-2.56-2.17-3.56-3.91z"/><linearGradient id="i" x1="181.31" x2="198.92" y1="505.65" y2="505.65" gradientTransform="rotate(20.262 225.31 435.359)" gradientUnits="userSpaceOnUse"><stop offset="0" style="stop-color:#fff"/><stop offset=".477" style="stop-color:#dcdbdc"/><stop offset="1" style="stop-color:#999"/></linearGradient><path fill="url(#i)" d="M165.03 503.21c-1.003-1.912-1.717-4.059-2.158-6.291a29.2 29.2 0 0 1-.495-6.857c.109-2.295.484-4.559 1.122-6.672.639-2.105 1.552-4.074 2.707-5.748 1.175-1.68 2.502-2.92 3.904-3.707 1.409-.805 2.894-1.148 4.366-1.057.309.02.615.063.922.121-1.088-.611-2.223-.955-3.374-1.027-1.473-.092-2.957.254-4.365 1.059-1.403.787-2.729 2.027-3.905 3.707-1.154 1.672-2.068 3.643-2.707 5.748a27.8 27.8 0 0 0-1.121 6.672 29.2 29.2 0 0 0 .495 6.855c.441 2.234 1.154 4.381 2.157 6.291 1.021 1.918 2.239 3.438 3.552 4.531 1.248 1.002 2.582 1.648 3.951 1.914a10.4 10.4 0 0 1-1.5-1.01c-1.31-1.08-2.52-2.6-3.55-4.51z"/></g><g opacity=".25"><linearGradient id="j" x1="320.75" x2="348.45" y1="430.48" y2="430.48" gradientTransform="rotate(20.262 225.31 435.359)" gradientUnits="userSpaceOnUse"><stop offset="0" style="stop-color:#fff"/><stop offset=".477" style="stop-color:#dcdbdc"/><stop offset="1" style="stop-color:#999"/></linearGradient><path fill="url(#j)" d="M332.48 480.35c-2.355.475-4.688.568-6.845.205l-.023.004c-2.188-.375-4.011-1.166-5.408-2.305a9.23 9.23 0 0 1-2.998-4.436c-.537-1.785-.623-3.824-.183-6.014.422-2.209 1.381-4.586 2.905-6.982 1.527-2.404 3.469-4.6 5.676-6.52a33 33 0 0 1 2.694-2.08 33.4 33.4 0 0 0-4.957 3.543c-2.207 1.92-4.147 4.113-5.676 6.52-1.524 2.396-2.484 4.773-2.905 6.984-.44 2.188-.355 4.229.183 6.012a9.23 9.23 0 0 0 2.997 4.436c1.398 1.139 3.222 1.928 5.409 2.305l.024-.004c2.156.361 4.488.27 6.845-.205 2.355-.475 4.74-1.324 7.042-2.486a32 32 0 0 0 3.951-2.383q-.837.489-1.689.922c-2.3 1.15-4.68 2.01-7.04 2.48z"/><linearGradient id="k" x1="253.81" x2="281.5" y1="515.01" y2="515.01" gradientTransform="rotate(20.262 225.31 435.359)" gradientUnits="userSpaceOnUse"><stop offset="0" style="stop-color:#fff"/><stop offset=".477" style="stop-color:#dcdbdc"/><stop offset="1" style="stop-color:#999"/></linearGradient><path fill="url(#k)" d="M240.4 536.47c-2.355.475-4.688.568-6.845.207l-.024.004c-2.187-.379-4.011-1.168-5.408-2.307a9.23 9.23 0 0 1-2.998-4.436c-.537-1.785-.623-3.826-.183-6.014.421-2.209 1.381-4.586 2.906-6.982 1.526-2.404 3.469-4.602 5.675-6.52a34 34 0 0 1 2.693-2.08 33.5 33.5 0 0 0-4.956 3.543c-2.207 1.92-4.147 4.113-5.675 6.52-1.525 2.396-2.484 4.773-2.906 6.982-.439 2.188-.355 4.229.183 6.014a9.23 9.23 0 0 0 2.998 4.436c1.397 1.139 3.222 1.928 5.408 2.305l.024-.004c2.156.363 4.489.268 6.845-.205 2.356-.475 4.74-1.326 7.042-2.486a33 33 0 0 0 3.949-2.381 32 32 0 0 1-1.688.92c-2.3 1.15-4.68 2-7.04 2.48z"/></g><g opacity=".25"><linearGradient id="l" x1="179.35" x2="215.45" y1="337.14" y2="337.14" gradientTransform="rotate(20.262 225.31 435.359)" gradientUnits="userSpaceOnUse"><stop offset="0" style="stop-color:#fff"/><stop offset=".477" style="stop-color:#dcdbdc"/><stop offset="1" style="stop-color:#999"/></linearGradient><path fill="url(#l)" d="M250 338.97c0 .995-1.259 1.635-2.587 2.019-1.328.387-2.827.425-4.839.164-2.003-.252-3.952-.911-6.113-1.708-.002 0 .021-.001.02-.002-.008-.003-.002-.005-.01-.008a35.3 35.3 0 0 1-6.331-3.085c-2.026-1.253-3.952-2.649-5.619-4.169-1.673-1.529-3.106-3.134-4.168-4.785-1.062-1.645-1.68-3.149-1.854-4.474a5.6 5.6 0 0 1-.001-1.541c-.574.88-.788 1.976-.622 3.232.174 1.325.788 2.841 1.85 4.485 1.063 1.65 2.49 3.276 4.162 4.806a38 38 0 0 0 5.607 4.209 38.5 38.5 0 0 0 6.308 3.166c2.148.834 4.276 1.409 6.279 1.662 2.013.26 3.701.165 5.029-.223 1.328-.384 1.99-1.107 2.586-2.018.324-.494.303-1.15.303-1.731l-.01.01z"/><linearGradient id="m" x1="304.06" x2="340.37" y1="362.34" y2="362.34" gradientTransform="rotate(20.262 225.31 435.359)" gradientUnits="userSpaceOnUse"><stop offset="0" style="stop-color:#fff"/><stop offset=".477" style="stop-color:#dcdbdc"/><stop offset="1" style="stop-color:#999"/></linearGradient><path fill="url(#m)" d="M356.16 408.15c-1.227.451-2.816.602-4.745.387-1.916-.191-3.995-.727-6.089-1.547a37.6 37.6 0 0 1-6.253-3.115 39 39 0 0 1-5.665-4.25c-1.706-1.545-3.186-3.218-4.345-4.91-1.148-1.697-1.83-3.269-2.115-4.656-.154-.773-.177-1.484-.08-2.132a4 4 0 0 0-.166.272c-.522.967-.65 2.159-.375 3.542.285 1.388.967 2.959 2.115 4.657 1.159 1.691 2.639 3.364 4.345 4.91 1.705 1.548 3.636 3 5.665 4.25a37.6 37.6 0 0 0 6.252 3.115c2.095.82 4.173 1.355 6.089 1.547 1.93.215 3.52.064 4.746-.389 1.235-.449 2.113-1.186 2.601-2.168a4.2 4.2 0 0 0 .407-1.307c-.52.79-1.33 1.4-2.4 1.79z"/><linearGradient id="n" x1="247.38" x2="282.82" y1="321.54" y2="321.54" gradientTransform="rotate(20.262 225.31 435.359)" gradientUnits="userSpaceOnUse"><stop offset="0" style="stop-color:#fff"/><stop offset=".477" style="stop-color:#dcdbdc"/><stop offset="1" style="stop-color:#999"/></linearGradient><path fill="url(#n)" d="M316.24 349.73c-1.242.38-2.824.485-4.732.248-1.894-.243-3.936-.806-6.002-1.614a37 37 0 0 1-6.111-3.069 39 39 0 0 1-5.5-4.109c-1.653-1.494-3.075-3.087-4.166-4.7-1.088-1.604-1.738-3.085-1.966-4.387a5.4 5.4 0 0 1-.071-1.71c-.025.037-.055.074-.078.113-.55.875-.72 1.99-.473 3.281.229 1.302.879 2.783 1.966 4.388 1.091 1.612 2.514 3.205 4.167 4.7a39 39 0 0 0 5.5 4.108 37 37 0 0 0 6.111 3.068c2.066.809 4.107 1.371 6.002 1.614 1.907.237 3.49.132 4.732-.248 1.239-.37 2.122-1.047 2.632-1.946.253-.434.414-.925.481-1.464-.52.8-1.35 1.4-2.49 1.73z"/><linearGradient id="o" x1="235.76" x2="273.11" y1="379.49" y2="379.49" gradientTransform="rotate(20.262 225.31 435.359)" gradientUnits="userSpaceOnUse"><stop offset="0" style="stop-color:#fff"/><stop offset=".477" style="stop-color:#dcdbdc"/><stop offset="1" style="stop-color:#999"/></linearGradient><path fill="url(#o)" d="M286.9 400.79c-1.329.444-3.024.609-5.053.381-2.029-.206-4.193-.77-6.383-1.593-2.173-.829-4.377-1.937-6.466-3.209-2.074-1.295-4.042-2.77-5.773-4.365-1.728-1.59-3.22-3.294-4.346-5.033-1.116-1.734-1.775-3.343-1.992-4.754a6.2 6.2 0 0 1-.015-1.953l-.016.021c-.598.967-.814 2.198-.591 3.615.217 1.411.876 3.02 1.992 4.754 1.126 1.74 2.618 3.443 4.345 5.033 1.731 1.597 3.699 3.071 5.774 4.366 2.089 1.272 4.293 2.38 6.466 3.209 2.188.824 4.354 1.388 6.383 1.594 2.028.228 3.723.063 5.052-.381 1.335-.453 2.303-1.211 2.861-2.203a4.5 4.5 0 0 0 .545-1.563c-.56.93-1.5 1.65-2.78 2.08z"/><linearGradient id="p" x1="179.6" x2="202.6" y1="336.07" y2="336.07" gradientTransform="rotate(20.262 225.31 435.359)" gradientUnits="userSpaceOnUse"><stop offset="0" style="stop-color:#fff"/><stop offset=".477" style="stop-color:#dcdbdc"/><stop offset="1" style="stop-color:#999"/></linearGradient><path fill="url(#p)" d="M220.35 327.41c1.063 1.65 2.491 3.275 4.164 4.804 1.667 1.521 3.61 2.876 5.637 4.129a35.3 35.3 0 0 0 6.337 3.085l.022.008a35.4 35.4 0 0 1-6.346-3.089c-2.026-1.251-3.962-2.651-5.629-4.172-1.673-1.528-3.11-3.136-4.174-4.786-1.062-1.645-1.431-3.147-1.604-4.471-.072-.548-.753-1.086.247-1.535v.001c-1 .448-.324.995-.253 1.543.16 1.34.52 2.85 1.59 4.49z"/></g><path fill="#fff" stroke="#000" stroke-miterlimit="10" stroke-width=".828" d="M569.67 439.95c20.97-7.605 43.986-16.172 64.506-24.822a822 822 0 0 0 38.507-17.582c2.189-1.086 13.396-6.529 14.861-13.313 5.568-14.422-9.137-117.64-16.062-125.98-4.593-10.507-41.019-44.573-68.522-66.383-15.076-11.95-27.509-20.222-30.502-18.916-.019-.015-.068.001-.095.007a20 20 0 0 0-10.259.592c-9.643-.76-103.81 63.55-112.46 76.038-7.34 8.828-19.554 121.31-14.397 129.27.507 1.402 1.156 2.557 1.808 3.441.025.049.051.119.101.16.144.326.433.676.834 1.064a.7.7 0 0 0 .267.285c.115.123.213.203.29.305.074.102.189.184.3.301.047.02.092.064.118.119l.039.01c15.318 13.33 93.521 59.053 111.96 59.693 5.26.49 13.92-2.54 18.69-4.29z"/><linearGradient id="q" x1="1104.3" x2="642.15" y1="148.58" y2="-68.426" gradientTransform="rotate(66.365 533.635 -77.028)" gradientUnits="userSpaceOnUse"><stop offset="0" style="stop-color:#fff"/><stop offset=".477" style="stop-color:#dcdbdc"/><stop offset="1" style="stop-color:#999"/></linearGradient><path fill="url(#q)" d="m679.66 383.53.188.127c.529.367.904.637 1.247.859l.34.236c.105.094.197.16.289.217l.136.076c.046.014.092.066.097.088a5.3 5.3 0 0 0-.878-.418c1.331 1.588 1.708 3.049 1.451 4.436-.374 1.969-1.799 3.521-3.545 4.826-1.996 1.508-4.468 2.652-6.308 3.566a822 822 0 0 1-38.507 17.582c-20.521 8.65-43.536 17.217-64.507 24.822-4.766 1.748-13.423 4.781-18.705 4.291-18.435-.643-96.638-46.365-111.96-59.695l-.039-.01a.24.24 0 0 0-.118-.119c-.111-.117-.226-.199-.3-.301-.077-.102-.176-.182-.29-.305a.7.7 0 0 1-.268-.283 13 13 0 0 1-.833-1.066c-.022-.061-.076-.111-.101-.16-.083-.189-.217-.41-.176-.559.092-.676.851-1.396 2.469-2.748l.04-.051 1.54-.84c.117-.086.294-.168.469-.271l1.842-1.006 1.389-.783.132-.059c.241-.129.544-.295.847-.461l.908-.496 1.958-1.09 2.187-1.191 4.915-2.721.081-.031c.028-.016.085-.035.111-.049 3.651-1.807 88.268-43.718 97.147-47.596 9.126-3.987 21.682-5.115 38.431 4.875 6.653 3.961 78.188 49.7 84.805 53.918.09.043.184.115.274.17l.146.111 3.08 2.11z" opacity=".95"/><linearGradient id="r" x1="878.82" x2="1143.3" y1="-1.653" y2="243.72" gradientTransform="rotate(66.365 533.635 -77.028)" gradientUnits="userSpaceOnUse"><stop offset="0" style="stop-color:#fff"/><stop offset=".477" style="stop-color:#dcdbdc"/><stop offset="1" style="stop-color:#d0d1d1"/></linearGradient><path fill="url(#r)" d="M673.41 379.23c.143.117.281.178.384.27l2.359 1.643c-6.616-4.219-78.151-49.957-84.805-53.918-16.749-9.99-29.305-8.862-38.431-4.875-8.88 3.877-93.496 45.789-97.147 47.596l11.726-6.467 3.369-1.846.763-.443 6.875-3.73c2.322-1.242 4.698-2.555 7.078-3.863l5.135-2.791 2.922-1.607 12.482-6.797c3.636-1.992 7.179-3.904 10.615-5.781l.025-.016 8.651-4.718.304-.159 3.654-2.011 1.3-.692 7.483-4.119 1.052-.562 1.585-.86 2.055-1.119 2.3-1.241 1.413-.792 1.385-.734.672-.362 1.481-.817.028-.009c.319-.181.584-.326.797-.459l.332-.167c.108-.054.182-.115.258-.156l.566-.314c-.846.575-1.719 1.157-2.669 1.769 6.146-3.981 13.714-5.902 20.994-4.883 8.25 1.165 13.802 4.678 21.05 8.437l32.617 22.538c2.686 1.863 5.446 3.76 8.221 5.674a622 622 0 0 1 4.692 3.25c1.24.838 2.435 1.674 3.637 2.492l4.153 2.875c.715.498 1.388.957 2.061 1.414l4.082 2.807 3.695 2.561c.721.482 1.399.98 2.076 1.457l3.466 2.363c.48.346.979.697 1.45 1.023l5.733 3.938 3.533 2.451.06.043 2.49 1.72z"/><linearGradient id="s" x1="981.71" x2="631.66" y1="-30.576" y2="267.5" gradientTransform="rotate(66.365 533.635 -77.028)" gradientUnits="userSpaceOnUse"><stop offset="0" style="stop-color:#fff"/><stop offset=".477" style="stop-color:#dcdbdc"/><stop offset="1" style="stop-color:#d0d1d1"/></linearGradient><path fill="url(#s)" d="M549.4 319.08c.95-.612 1.823-1.194 2.669-1.769 5.388-3.557 9.001-7.508 11.455-11.877 4.549-8.136 5.104-17.687 5.672-28.819 1.786 20.776 6.311 32.471 22.248 46.019-7.248-3.759-12.8-7.271-21.05-8.437-7.27-1.01-14.84.91-20.99 4.89z"/><linearGradient id="t" x1="858.88" x2="852.77" y1="-23.831" y2="294.11" gradientTransform="rotate(66.365 533.635 -77.028)" gradientUnits="userSpaceOnUse"><stop offset="0" style="stop-color:#fff"/><stop offset=".477" style="stop-color:#dcdbdc"/><stop offset="1" style="stop-color:#d0d1d1"/></linearGradient><path fill="url(#t)" d="M560.12 300.12c4.772-11.638 5.215-22.379 5.215-22.379.829-10.365 1.454-25.025 1.856-37.915l.023-.004c.102-3.521.22-6.907.305-10.001.012-.418.03-.769.029-1.132.072-2.803.144-5.398.185-7.656.033-.251.016-.504.046-.755.025-1.237.054-2.38.065-3.426.022-.475.03-.921.056-1.331.021-2.215.06-3.662.076-4.176.006.483.024.968.021 1.458.008 1.306.069 2.647.077 4.04l.073 4.212c.015.857.033 1.752.057 2.638l.11 6.138c.025.277.016.553.034.818l.125 7.545c.021.565.022 1.13.044 1.688l.19 11.586c.097 3.938.152 7.652.214 10.927.054 2.114.072 4.074.104 5.793l.048 2.408c.087 3.769.133 6.019.133 6.019-.567 11.132-1.123 20.684-5.672 28.819-2.454 4.37-6.067 8.321-11.455 11.877l-.566.314c-.076.042-.149.102-.258.156l-.332.167c-.213.133-.478.279-.797.459l-.028.009-1.481.817-.672.362-1.385.734-1.413.792-2.3 1.241-2.055 1.119-1.585.86-.06-.137c4.047-2.028 7.478-4.643 10.358-7.564.091-.12.166-.181.257-.284 4.68-4.93 7.99-10.71 10.32-16.26z"/><linearGradient id="u" x1="650.56" x2="1041.7" y1="236.7" y2="-47.554" gradientTransform="rotate(66.365 533.635 -77.028)" gradientUnits="userSpaceOnUse"><stop offset="0" style="stop-color:#fff"/><stop offset=".477" style="stop-color:#dcdbdc"/><stop offset="1" style="stop-color:#999"/></linearGradient><path fill="url(#u)" d="M565.33 277.74s-.442 10.741-5.215 22.379c-2.322 5.548-5.631 11.333-10.357 16.24-.091.103-.166.164-.257.284-2.881 2.921-6.312 5.536-10.358 7.564l.06.137-1.052.562-7.483 4.119-1.3.692-3.654 2.011-.304.159c-2.792 1.489-5.653 3.081-8.651 4.718l-.025.016c-3.437 1.877-6.979 3.789-10.615 5.781l-12.482 6.797-2.922 1.607-5.135 2.791c-2.38 1.309-4.756 2.621-7.078 3.863l-6.875 3.73-.763.443-3.369 1.846c-4.275 2.334-8.25 4.5-11.726 6.467-.026.014-.083.033-.111.049l-.081.031a160 160 0 0 0-4.915 2.721l-2.187 1.191-1.958 1.09-.908.496c-.303.166-.605.332-.847.461l-.132.059-1.389.783-1.842 1.006c-.175.104-.352.186-.469.271l-1.54.84-.04.051c-1.693.477-3.14.543-3.701.324-.134-.084-.288-.279-.4-.459-5.155-7.961 7.059-120.45 14.398-129.27 8.647-12.487 102.81-76.797 112.46-76.038.314.028.558.123.67.31 1.722 1.739 3.368 10.665 4.671 23.172.037-1.515.096-2.972.187-4.384l.034 1.621c.019.258.015.567.023.892.003.464.011.935.026 1.49-.005.765.028 1.62.043 2.551.006 1.166.024 2.424.066 3.811.041 1.446.065 3.033.087 4.696.012.567.012 1.164.029 1.754.021.56.029 1.12.042 1.683 0 .069.011.101.01.172-.031.014-.031.014-.019.027-.017.515-.056 1.961-.076 4.176-.025.41-.033.856-.056 1.331-.012 1.046-.04 2.188-.065 3.426-.03.251-.013.504-.046.755-.041 2.258-.112 4.853-.185 7.656.001.363-.018.714-.029 1.132-.085 3.095-.203 6.48-.305 10.001l-.023.004c-.38 12.89-1 27.55-1.83 37.91z" opacity=".6"/><linearGradient id="v" x1="752.6" x2="877.42" y1="-45.848" y2="121.76" gradientTransform="rotate(66.365 533.635 -77.028)" gradientUnits="userSpaceOnUse"><stop offset="0" style="stop-color:#fff"/><stop offset=".477" style="stop-color:#dcdbdc"/><stop offset="1" style="stop-color:#d0d1d1"/></linearGradient><path fill="url(#v)" d="M567.63 192.65a112 112 0 0 0-.187 4.384c-1.303-12.507-2.949-21.434-4.671-23.172-.112-.188-.355-.282-.67-.31a20 20 0 0 1 10.259-.592c-1.964-.512-4.155 5.921-4.719 19.189l-.027.047c.022.025.029.054.007.087l-.006.331.02.03z"/><path d="M587.56 212.01c.092 1.962.511 4.083 1.19 6.246a38.4 38.4 0 0 0 2.737 6.454 38.7 38.7 0 0 0 3.868 5.903c1.44 1.8 2.992 3.365 4.599 4.588 1.61 1.235 3.118 2 4.461 2.331 1.342.335 2.532.239 3.505-.249.974-.486 1.738-1.374 2.216-2.636.483-1.247.69-2.856.592-4.815-.115-1.956-.541-4.047-1.215-6.182a39 39 0 0 0-2.713-6.369 37.7 37.7 0 0 0-3.813-5.822c-1.409-1.779-2.936-3.335-4.518-4.574l-.026-.009c-1.584-1.234-3.081-2.015-4.428-2.377-1.351-.361-2.544-.305-3.523.157-1 .46-1.773 1.325-2.282 2.547-.52 1.24-.75 2.86-.66 4.81zM669.03 335.02a39 39 0 0 0-2.746-6.421c-1.104-2.067-2.371-4.029-3.776-5.752-1.381-1.736-2.883-3.247-4.43-4.395-1.547-1.161-2.989-1.852-4.285-2.106-1.294-.263-2.431-.099-3.357.469-.936.575-1.646 1.541-2.102 2.876-.449 1.343-.647 3.044-.506 5.09.153 2.044.594 4.234 1.294 6.427a38.7 38.7 0 0 0 2.768 6.52 38 38 0 0 0 3.844 5.832c1.401 1.76 2.93 3.266 4.492 4.393 1.561 1.154 3.011 1.822 4.299 2.047 1.295.229 2.423.035 3.338-.572.916-.586 1.61-1.588 2.042-2.947.431-1.334.586-3.027.433-5.043l.004-.078c-.13-2.03-.58-4.18-1.28-6.35zM653.06 249.26c-1.514-1.186-2.934-1.915-4.183-2.233-1.273-.312-2.387-.215-3.299.277-.915.481-1.622 1.36-2.056 2.601-.455 1.24-.637 2.848-.501 4.782.134 1.941.565 4.033 1.245 6.155a39 39 0 0 0 2.696 6.314 36.7 36.7 0 0 0 3.746 5.721c1.382 1.736 2.865 3.247 4.382 4.408 1.53 1.162 2.953 1.866 4.218 2.16 1.258.303 2.361.16 3.253-.363.896-.51 1.581-1.416 1.996-2.676.434-1.253.591-2.865.448-4.792l.003-.012c-.146-1.92-.584-3.994-1.264-6.089a40 40 0 0 0-2.668-6.222 37.4 37.4 0 0 0-3.694-5.654c-1.35-1.72-2.82-3.23-4.33-4.38zM603.75 306.68c1.64 1.213 3.188 1.922 4.561 2.206 1.382.278 2.599.107 3.58-.47.996-.567 1.774-1.552 2.272-2.902.492-1.347.705-3.078.59-5.131-.103-2.058-.552-4.257-1.245-6.46a38.7 38.7 0 0 0-2.792-6.582c-1.131-2.114-2.457-4.143-3.906-5.935-1.444-1.794-3.018-3.359-4.643-4.574-1.632-1.216-3.173-1.955-4.545-2.272-1.392-.293-2.616-.167-3.626.37-1.003.536-1.807 1.492-2.325 2.83-.521 1.33-.758 3.051-.662 5.112.101 2.07.537 4.292 1.232 6.534.697 2.25 1.659 4.513 2.805 6.674 1.167 2.149 2.519 4.213 3.982 6.021 1.49 1.79 3.08 3.37 4.73 4.57zM517.71 229.66c.091 1.863.57 3.434 1.385 4.686a7.1 7.1 0 0 0 3.318 2.749c1.378.575 3.02.767 4.814.567 1.813-.205 3.783-.82 5.843-1.878 2.064-1.075 4-2.482 5.755-4.129a29 29 0 0 0 4.551-5.493c1.261-1.972 2.238-4.046 2.849-6.114.62-2.037.874-4.066.685-5.957-.167-1.866-.758-3.394-1.658-4.595-.913-1.178-2.118-2.019-3.561-2.493-1.429-.462-3.081-.564-4.875-.272-1.78.287-3.71.965-5.683 2.048l-.007.004c-1.966 1.076-3.816 2.473-5.465 4.055a29 29 0 0 0-4.314 5.241c-1.21 1.872-2.16 3.839-2.792 5.807-.62 1.96-.93 3.92-.83 5.77zM469.8 339.67c1.706-1.561 3.248-3.43 4.549-5.479a28 28 0 0 0 3.098-6.509c.729-2.254 1.137-4.55 1.158-6.759.007-2.201-.361-4.109-1.069-5.667-.687-1.552-1.68-2.764-2.926-3.593-1.228-.818-2.685-1.264-4.308-1.276-1.608-.022-3.378.385-5.238 1.248-1.837.867-3.616 2.112-5.226 3.613a27.9 27.9 0 0 0-4.318 5.208 29.2 29.2 0 0 0-3.012 6.18c-.738 2.153-1.199 4.368-1.29 6.523-.078 2.171.211 4.097.798 5.7.623 1.609 1.533 2.916 2.701 3.85 1.176.926 2.624 1.484 4.229 1.617 1.629.119 3.441-.191 5.352-1.018 1.95-.81 3.81-2.08 5.51-3.63zM550.5 402.56c2.275.771 4.765 1.232 7.337 1.385a32.8 32.8 0 0 0 7.833-.5c2.625-.473 5.187-1.268 7.575-2.41 2.408-1.123 4.402-2.508 5.964-4.023 1.578-1.541 2.717-3.217 3.378-4.959.645-1.754.81-3.57.411-5.34-.39-1.787-1.332-3.521-2.898-5.094l.002-.002c-1.578-1.596-3.636-2.869-5.992-3.805-2.374-.938-5.057-1.52-7.859-1.732a33 33 0 0 0-8.629.5c-2.871.553-5.651 1.477-8.181 2.791-2.521 1.309-4.544 2.883-6.017 4.582-1.479 1.672-2.43 3.48-2.859 5.293a9.23 9.23 0 0 0 .367 5.342c.638 1.686 1.819 3.283 3.521 4.707l.022.008c1.7 1.38 3.77 2.47 6.04 3.25z"/><g opacity=".25"><linearGradient id="w" x1="386.57" x2="401.48" y1="277.39" y2="277.39" gradientTransform="rotate(50.38 523.997 392.348)" gradientUnits="userSpaceOnUse"><stop offset="0" style="stop-color:#fff"/><stop offset=".477" style="stop-color:#dcdbdc"/><stop offset="1" style="stop-color:#999"/></linearGradient><path fill="url(#w)" d="M519.15 231.2c-.091-1.849.213-3.81.845-5.773.632-1.967 1.582-3.935 2.793-5.806 1.205-1.886 2.848-3.445 4.495-5.023 1.648-1.583 3.951-2.434 5.646-3.836l.007-.005c1.702-1.409 3.722-1.979 5.502-2.266 1.794-.292 3.356-.298 4.784.163.865.285 1.599.649 2.282 1.191a9 9 0 0 0-.231-.327 7.37 7.37 0 0 0-3.572-2.506c-1.427-.461-3.188-.695-4.982-.403-1.781.286-3.452 1.278-5.791 1.917l-.007.005c-1.694 1.402-3.714 2.596-5.362 4.179-1.646 1.58-3.056 3.419-4.262 5.303a24.7 24.7 0 0 0-2.768 5.838c-.632 1.963-.924 3.939-.832 5.788.092 1.864.577 3.442 1.392 4.693a7.2 7.2 0 0 0 1.572 1.73c-.042-.06-.086-.115-.126-.177-.81-1.23-1.29-2.8-1.38-4.67z"/></g><g opacity=".25"><linearGradient id="x" x1="423.65" x2="441.27" y1="396.42" y2="396.42" gradientTransform="rotate(50.38 523.997 392.348)" gradientUnits="userSpaceOnUse"><stop offset="0" style="stop-color:#fff"/><stop offset=".477" style="stop-color:#dcdbdc"/><stop offset="1" style="stop-color:#999"/></linearGradient><path fill="url(#x)" d="M452.89 335.17c.093-2.156.553-4.371 1.291-6.523a29 29 0 0 1 3.012-6.18 28 28 0 0 1 4.318-5.208c1.61-1.5 3.388-2.747 5.227-3.613 1.858-.863 3.63-1.27 5.237-1.248 1.622.012 3.079.458 4.307 1.276q.385.261.737.567c-.635-1.074-1.443-1.941-2.403-2.581-1.228-.818-2.685-1.264-4.308-1.276-1.608-.022-3.378.385-5.237 1.247-1.838.867-3.617 2.113-5.227 3.614a27.8 27.8 0 0 0-4.317 5.208 29.2 29.2 0 0 0-3.013 6.181c-.738 2.153-1.198 4.366-1.29 6.523-.078 2.171.212 4.097.799 5.7.576 1.494 1.406 2.723 2.457 3.641a10.5 10.5 0 0 1-.79-1.627c-.6-1.6-.89-3.53-.81-5.7z"/></g><g opacity=".25"><linearGradient id="y" x1="529.69" x2="557.39" y1="366.3" y2="366.3" gradientTransform="rotate(50.38 523.997 392.348)" gradientUnits="userSpaceOnUse"><stop offset="0" style="stop-color:#fff"/><stop offset=".477" style="stop-color:#dcdbdc"/><stop offset="1" style="stop-color:#999"/></linearGradient><path fill="url(#y)" d="M553.19 402.43c-2.275-.773-4.34-1.861-6.023-3.258l-.022-.008c-1.703-1.424-2.885-3.023-3.521-4.709a9.24 9.24 0 0 1-.368-5.34c.432-1.814 1.382-3.621 2.859-5.295 1.474-1.699 3.496-3.273 6.018-4.58 2.528-1.314 5.309-2.24 8.182-2.793a33 33 0 0 1 3.374-.447c-2.008.01-4.048.195-6.066.578-2.871.553-5.651 1.477-8.181 2.791-2.521 1.309-4.544 2.883-6.017 4.582-1.479 1.672-2.43 3.48-2.859 5.293a9.24 9.24 0 0 0 .367 5.342c.638 1.686 1.819 3.283 3.521 4.707l.022.008c1.685 1.395 3.748 2.486 6.024 3.258s4.765 1.232 7.338 1.383c1.515.088 3.064.055 4.614-.076q-.969.001-1.924-.053c-2.56-.15-5.05-.61-7.33-1.38z"/></g><g opacity=".25"><linearGradient id="z" x1="421.7" x2="457.98" y1="227.91" y2="227.91" gradientTransform="rotate(50.38 523.997 392.348)" gradientUnits="userSpaceOnUse"><stop offset="0" style="stop-color:#fff"/><stop offset=".477" style="stop-color:#dcdbdc"/><stop offset="1" style="stop-color:#999"/></linearGradient><path fill="url(#z)" d="M609.14 235.94c-.816.676-2.082.682-3.424.347-1.343-.331-2.745-1.101-4.355-2.337-1.605-1.224-3.004-2.795-4.473-4.57l-.003-.003-.017-.02a35.4 35.4 0 0 1-3.934-5.849c-1.123-2.1-2.091-4.275-2.77-6.427-.681-2.162-1.115-4.271-1.207-6.232-.092-1.955.128-3.567.642-4.8.212-.51.47-.95.772-1.333-.939.473-1.674 1.313-2.16 2.483-.515 1.232-.744 2.853-.652 4.807.093 1.961.511 4.083 1.19 6.246a38 38 0 0 0 2.737 6.454 38.5 38.5 0 0 0 3.868 5.903c1.439 1.8 2.992 3.365 4.598 4.589 1.61 1.235 3.119 2 4.462 2.331 1.341.335 2.451.142 3.424-.347.527-.265.827-.85 1.304-1.245z"/><linearGradient id="A" x1="546.41" x2="582.71" y1="253.11" y2="253.11" gradientTransform="rotate(50.38 523.997 392.348)" gradientUnits="userSpaceOnUse"><stop offset="0" style="stop-color:#fff"/><stop offset=".477" style="stop-color:#dcdbdc"/><stop offset="1" style="stop-color:#999"/></linearGradient><path fill="url(#A)" d="M665.91 348.86c-1.288-.225-2.739-.893-4.3-2.047-1.562-1.127-3.091-2.633-4.491-4.393a38 38 0 0 1-3.845-5.832 39 39 0 0 1-2.768-6.52c-.7-2.192-1.141-4.382-1.294-6.427-.142-2.045.057-3.747.507-5.09.255-.746.592-1.372 1-1.884a5 5 0 0 0-.28.152c-.937.575-1.646 1.541-2.102 2.876-.45 1.344-.648 3.044-.507 5.09.153 2.044.594 4.234 1.294 6.427a39 39 0 0 0 2.768 6.52 37.8 37.8 0 0 0 3.845 5.83c1.4 1.762 2.929 3.268 4.491 4.395 1.561 1.154 3.011 1.822 4.299 2.047 1.295.229 2.424.035 3.338-.572q.561-.362 1.007-.926c-.85.42-1.85.55-2.97.35z"/><linearGradient id="B" x1="489.72" x2="525.16" y1="212.31" y2="212.31" gradientTransform="rotate(50.38 523.997 392.348)" gradientUnits="userSpaceOnUse"><stop offset="0" style="stop-color:#fff"/><stop offset=".477" style="stop-color:#dcdbdc"/><stop offset="1" style="stop-color:#999"/></linearGradient><path fill="url(#B)" d="M660.69 278.3c-1.265-.294-2.687-.998-4.217-2.16-1.518-1.161-3-2.672-4.383-4.408a37 37 0 0 1-3.745-5.721 39 39 0 0 1-2.696-6.314c-.681-2.122-1.111-4.214-1.245-6.155-.136-1.934.045-3.542.501-4.782a5.4 5.4 0 0 1 .796-1.515c-.04.02-.084.037-.123.059-.915.481-1.622 1.36-2.055 2.6-.456 1.241-.638 2.849-.502 4.783.134 1.941.565 4.033 1.245 6.155a39 39 0 0 0 2.696 6.314 36.7 36.7 0 0 0 3.746 5.721c1.382 1.737 2.865 3.247 4.382 4.408 1.531 1.162 2.953 1.866 4.218 2.16 1.258.303 2.361.16 3.253-.363a3.8 3.8 0 0 0 1.152-1.024c-.84.41-1.86.51-3.02.24z"/><linearGradient id="C" x1="478.1" x2="515.45" y1="270.26" y2="270.26" gradientTransform="rotate(50.38 523.997 392.348)" gradientUnits="userSpaceOnUse"><stop offset="0" style="stop-color:#fff"/><stop offset=".477" style="stop-color:#dcdbdc"/><stop offset="1" style="stop-color:#999"/></linearGradient><path fill="url(#C)" d="M609.7 307.74c-1.372-.284-2.922-.991-4.562-2.205-1.652-1.198-3.241-2.771-4.722-4.582-1.463-1.807-2.814-3.872-3.981-6.02-1.146-2.162-2.107-4.425-2.805-6.674-.696-2.241-1.132-4.464-1.233-6.533-.096-2.061.143-3.783.662-5.112a6.2 6.2 0 0 1 .968-1.697l-.024.011c-1.003.536-1.807 1.492-2.325 2.831-.52 1.329-.758 3.051-.662 5.112.101 2.07.537 4.292 1.232 6.533.697 2.25 1.659 4.513 2.805 6.674 1.168 2.148 2.519 4.213 3.982 6.021 1.479 1.811 3.068 3.384 4.722 4.582 1.64 1.213 3.188 1.921 4.561 2.206 1.382.278 2.599.107 3.58-.47.47-.268.889-.63 1.255-1.078-.99.51-2.16.66-3.48.4z"/><linearGradient id="D" x1="421.82" x2="444.95" y1="226.92" y2="226.92" gradientTransform="rotate(50.38 523.997 392.348)" gradientUnits="userSpaceOnUse"><stop offset="0" style="stop-color:#fff"/><stop offset=".477" style="stop-color:#dcdbdc"/><stop offset="1" style="stop-color:#999"/></linearGradient><path fill="url(#D)" d="M588.94 210.87c.092 1.961.511 4.083 1.19 6.246.679 2.151 1.68 4.299 2.803 6.399a35.4 35.4 0 0 0 3.934 5.849l.017.02a35.3 35.3 0 0 1-3.939-5.857c-1.125-2.099-2.097-4.281-2.776-6.433-.68-2.162-1.117-4.273-1.208-6.235-.093-1.955.133-3.561.646-4.794.212-.51.406-1.02.774-1.324l-.001.001c-.367.304-.57.819-.783 1.329-.5 1.22-.74 2.83-.65 4.79z"/></g><path d="M641.03 281.02a39 39 0 0 0-2.746-6.421c-1.104-2.067-2.371-4.029-3.776-5.752-1.381-1.736-2.883-3.247-4.43-4.395-1.547-1.161-2.989-1.852-4.285-2.106-1.294-.263-2.431-.099-3.357.469-.936.575-1.646 1.541-2.102 2.876-.449 1.343-.647 3.044-.506 5.09.153 2.044.594 4.234 1.294 6.426a38.7 38.7 0 0 0 2.768 6.521c1.131 2.105 2.437 4.09 3.844 5.831 1.401 1.76 2.93 3.267 4.492 4.393 1.561 1.155 3.011 1.823 4.299 2.047 1.295.229 2.423.035 3.338-.571.916-.586 1.61-1.588 2.042-2.947.431-1.335.586-3.027.433-5.043l.004-.078c-.13-2.03-.58-4.18-1.28-6.35z"/><linearGradient id="E" x1="486.96" x2="523.25" y1="240.25" y2="240.25" gradientTransform="rotate(50.38 523.997 392.348)" gradientUnits="userSpaceOnUse"><stop offset="0" style="stop-color:#fff"/><stop offset=".477" style="stop-color:#dcdbdc"/><stop offset="1" style="stop-color:#999"/></linearGradient><path fill="url(#E)" d="M637.91 294.86c-1.288-.224-2.739-.892-4.3-2.047-1.562-1.126-3.091-2.633-4.491-4.393a38 38 0 0 1-3.845-5.832 39 39 0 0 1-2.768-6.519c-.7-2.192-1.141-4.382-1.294-6.427-.142-2.045.057-3.747.507-5.09.255-.746.592-1.372 1-1.884a5 5 0 0 0-.28.152c-.937.575-1.646 1.541-2.102 2.876-.45 1.344-.648 3.044-.507 5.09.153 2.044.594 4.234 1.294 6.426a39 39 0 0 0 2.768 6.521 37.8 37.8 0 0 0 3.845 5.83c1.4 1.761 2.929 3.268 4.491 4.394 1.561 1.154 3.011 1.823 4.299 2.047 1.295.229 2.424.035 3.338-.571q.561-.362 1.007-.926c-.85.42-1.85.54-2.97.35z" opacity=".2"/></g></svg>